<?xml version="1.0" encoding="UTF-8" standalone="no"?>
<!-- Created with Inkscape (http://www.inkscape.org/) -->

<svg
   version="1.1"
   id="svg1"
   width="371.15515"
   height="520.49768"
   viewBox="0 0 371.15515 520.49768"
   sodipodi:docname="logo-k-alt.svg"
   inkscape:export-filename="logo-k-alt.svg"
   inkscape:export-xdpi="96"
   inkscape:export-ydpi="96"
   xmlns:inkscape="http://www.inkscape.org/namespaces/inkscape"
   xmlns:sodipodi="http://sodipodi.sourceforge.net/DTD/sodipodi-0.dtd"
   xmlns="http://www.w3.org/2000/svg"
   xmlns:svg="http://www.w3.org/2000/svg">
  <defs
     id="defs1" />
  <sodipodi:namedview
     id="namedview1"
     pagecolor="#ffffff"
     bordercolor="#000000"
     borderopacity="0.25"
     inkscape:showpageshadow="2"
     inkscape:pageopacity="0.0"
     inkscape:pagecheckerboard="0"
     inkscape:deskcolor="#d1d1d1">
    <inkscape:page
       x="0"
       y="0"
       width="371.15515"
       height="520.49768"
       id="page1"
       margin="0"
       bleed="0" />
  </sodipodi:namedview>
  <g
     inkscape:groupmode="layer"
     inkscape:label="Image"
     id="g1"
     transform="translate(-326,-251.73936)">
    <path
       style="fill:#351b1e"
       d="M 326,512.11853 V 252 h 68.5 68.5 v 200.27623 c 0,132.17839 -0.35263,203.15749 -1.03709,208.75 -6.60826,53.99434 -39.35822,93.89837 -88.34241,107.64037 -7.87897,2.21036 -11.7409,2.62752 -28.3705,3.06456 L 326,772.23705 Z M 647.5,770.41941 C 616.1639,764.93122 586.88541,747.83067 567.41638,723.64534 548.4246,700.05287 538.51417,674.17009 536.0226,641.65518 534.31809,619.41134 533.01888,609.2706 530.49365,598.5 521.24206,559.04019 501.32489,531.8062 470.25,516.1251 c -3.4375,-1.73464 -6.25,-3.36676 -6.25,-3.62692 0,-0.26017 3.2625,-2.11477 7.25,-4.12133 21.35608,-10.74664 36.27941,-26.08833 47.61013,-48.94482 8.52058,-17.18785 13.22293,-34.58635 15.11691,-55.93203 0.58561,-6.6 1.5407,-17.09105 2.12242,-23.31345 5.22837,-55.92575 40.03029,-102.71625 89.65666,-120.54163 14.43938,-5.18651 24.9843,-6.76803 49.0624,-7.35836 l 22.31852,-0.54719 -0.40145,42.38032 c -0.37198,39.26926 -0.56456,43.11439 -2.62342,52.38031 -8.46011,38.0747 -26.94605,71.79992 -54.85431,100.07464 -38.47852,38.98377 -87.62774,60.82049 -146.75786,65.20369 l -11,0.8154 9.5,0.78609 c 35.60985,2.94656 62.19583,9.34284 87.31523,21.00703 30.47569,14.1514 59.21657,37.38943 78.91064,63.8021 10.2235,13.71122 14.13705,20.15244 21.23861,34.95615 6.54536,13.64428 11.73194,28.82636 15.2541,44.65166 2.52543,11.34689 2.61741,12.95925 3.02067,52.95324 l 0.41593,41.25 -20.82759,-0.0897 C 663.34716,771.8544 652.48586,771.29267 647.5,770.41945 Z"
       id="path1" />
  </g>
</svg>
